<?xml version="1.0" encoding="UTF-8"?>
<svg version="1.1" xmlns="http://www.w3.org/2000/svg" width="512" height="512">
<path d="M0 0 C3.42669214 2.90749636 6.73343269 5.91431753 10 9 C11.12535156 10.02867188 11.12535156 10.02867188 12.2734375 11.078125 C34.28980782 31.93573899 45.51305464 62.56692524 46.3515625 92.48535156 C46.66021113 125.60077787 34.61976317 155.61761852 11.87792969 179.59082031 C-0.35054658 192.03729727 -15.05773272 202.46905613 -31.91015625 207.546875 C-32.72709961 207.79405273 -33.54404297 208.04123047 -34.38574219 208.29589844 C-35.96445186 208.75394659 -37.55261929 209.1809318 -39.14941406 209.57128906 C-41.33675775 210.18883442 -43.05374574 210.8266548 -45 212 C-46.18798614 214.6826053 -47.12522332 217.21359886 -48 220 C-48.41151558 221.27473679 -48.41151558 221.27473679 -48.8313446 222.57522583 C-49.77014366 225.52492728 -50.68238329 228.48191718 -51.58984375 231.44140625 C-51.93071014 232.54640976 -52.27157654 233.65141327 -52.62277222 234.78990173 C-53.3520915 237.1553411 -54.08031139 239.52111966 -54.80752563 241.88720703 C-55.94588064 245.58975843 -57.08809538 249.29110032 -58.23120117 252.9921875 C-61.73324486 264.33879237 -65.21656786 275.69056004 -68.6484375 287.05859375 C-69.45242346 289.71098804 -70.25700187 292.36320181 -71.0617981 295.01535034 C-71.79557716 297.44398932 -72.51988558 299.87531933 -73.24389648 302.30688477 C-73.68948326 303.77764539 -74.13550085 305.24827559 -74.58203125 306.71875 C-75.14241089 308.58950195 -75.14241089 308.58950195 -75.71411133 310.49804688 C-78.15890099 317.15611844 -81.15706013 321.90994209 -87 326 C-91.71405105 327.92674106 -96.22894993 328.41544075 -101.26391602 328.66918945 C-102.11500128 328.71868177 -102.96608654 328.7681741 -103.84296227 328.81916618 C-106.7920353 328.9880664 -109.7416436 329.1444144 -112.69140625 329.30078125 C-114.89428035 329.42349971 -117.09712435 329.54675921 -119.29994202 329.67048645 C-126.72694212 330.08345892 -134.15485099 330.47859083 -141.5829134 330.87185001 C-144.10661726 331.00565267 -146.63028933 331.14004144 -149.15395355 331.27458954 C-177.08823533 332.76389353 -205.02410999 334.221954 -232.96056235 335.66990292 C-241.92272918 336.13453556 -250.88478719 336.60124072 -259.84681982 337.06845397 C-269.6269654 337.57828896 -279.40717172 338.08694881 -289.18741035 338.5949955 C-293.31772222 338.80955844 -297.44801427 339.02449716 -301.57829094 339.23973656 C-306.40262907 339.49107848 -311.22702001 339.74138121 -316.05145454 339.99086571 C-317.81881171 340.08242317 -319.58615062 340.17433385 -321.35346985 340.26662064 C-323.75996625 340.39222394 -326.16652518 340.51655279 -328.57310486 340.64054871 C-329.27372746 340.67741183 -329.97435006 340.71427495 -330.69620365 340.75225514 C-333.80547451 340.91117635 -336.88493817 341 -340 341 C-340.02835937 341.77988281 -340.05671875 342.55976563 -340.0859375 343.36328125 C-341.43601177 348.73473057 -344.48828924 352.67800287 -347.625 357.1875 C-348.90288964 359.06603502 -350.18023904 360.94493766 -351.45703125 362.82421875 C-352.0701416 363.71931152 -352.68325195 364.6144043 -353.31494141 365.53662109 C-355.34564686 368.50529946 -357.34692302 371.48776358 -359.3125 374.5 C-359.82425781 375.2734375 -360.33601563 376.046875 -360.86328125 376.84375 C-362.14636139 379.27763397 -362.71286353 381.26557734 -363 384 C-361.45641562 387.93614016 -360.55160136 389.63226576 -357 392 C-354.79648098 392.30035858 -354.79648098 392.30035858 -352.31881142 392.25333309 C-351.35102119 392.25894849 -350.38323097 392.26456388 -349.38611376 392.27034944 C-348.32047021 392.26636835 -347.25482665 392.26238726 -346.15689087 392.25828552 C-344.4616217 392.26379908 -344.4616217 392.26379908 -342.73210466 392.26942402 C-338.92503628 392.27944625 -335.11811274 392.27524481 -331.31103516 392.27124023 C-328.58967097 392.27450158 -325.86831611 392.28081519 -323.1469574 392.28707886 C-317.27675498 392.29913408 -311.40657973 392.30423233 -305.53636551 392.30496025 C-297.04352811 392.30628469 -288.55075678 392.32138578 -280.05794267 392.34045542 C-266.27236057 392.37131187 -252.4867768 392.39547042 -238.70117188 392.41333008 C-237.87577964 392.41440276 -237.0503874 392.41547544 -236.19998328 392.41658062 C-226.99170175 392.42840015 -217.78341955 392.43860526 -208.57513428 392.44702148 C-205.23661294 392.45009534 -201.89809161 392.45318413 -198.55957031 392.45629883 C-197.73578772 392.45706417 -196.91200514 392.45782951 -196.06325944 392.45861804 C-182.33233194 392.47169502 -168.60145219 392.49632859 -154.87056005 392.53004223 C-146.39837575 392.5503455 -137.92629355 392.5606198 -129.45408474 392.55805302 C-123.6493319 392.55701872 -117.84465979 392.5666425 -112.03993513 392.58469205 C-108.68940515 392.59474689 -105.33920396 392.59822155 -101.98864174 392.59192467 C-98.35793588 392.58581534 -94.72773796 392.59795765 -91.09707642 392.61473083 C-90.0358943 392.60851902 -88.97471219 392.6023072 -87.88137305 392.59590715 C-78.88521899 392.67193616 -78.88521899 392.67193616 -75 396 C-73.85636888 398.28726223 -73.73498068 399.82852427 -73.625 402.375 C-73.57601563 403.14585937 -73.52703125 403.91671875 -73.4765625 404.7109375 C-74.28193986 408.23296089 -75.97600986 409.10080011 -79 411 C-81.93334617 411.59190053 -84.81502091 411.60482021 -87.80078125 411.609375 C-88.63715622 411.62591125 -89.47353119 411.64244751 -90.33525085 411.65948486 C-92.99440916 411.7078894 -95.65299592 411.72931844 -98.3125 411.75 C-100.12047135 411.77816609 -101.92841615 411.80809441 -103.73632812 411.83984375 C-108.15750501 411.91364605 -112.57836603 411.96326652 -117 412 C-116.58862793 412.53689453 -116.17725586 413.07378906 -115.75341797 413.62695312 C-115.21346191 414.33787109 -114.67350586 415.04878906 -114.1171875 415.78125 C-113.58206543 416.48314453 -113.04694336 417.18503906 -112.49560547 417.90820312 C-106.86781893 425.77938743 -107.17709036 434.73533195 -108 444 C-110.02380936 452.71267081 -115.00238907 460.11007028 -122.25 465.3125 C-131.25001513 470.83592066 -140.65870885 472.42826676 -151.01171875 470.4140625 C-160.14294319 467.86527002 -166.91860771 463.00177119 -171.91796875 454.88671875 C-176.85723082 445.27803553 -178.71044208 436.54960548 -175.875 425.875 C-174 421 -174 421 -168 412 C-201.99 412 -235.98 412 -271 412 C-269.02 414.31 -267.04 416.62 -265 419 C-260.49781874 428.89516843 -259.54575425 438.23815764 -262.9609375 448.515625 C-267.16165817 458.55945337 -273.96262359 465.06064261 -283.88671875 469.23828125 C-292.84592134 472.46756869 -302.30055153 471.72229237 -311 468 C-319.02724629 463.88751914 -325.01029083 457.64667576 -328.9375 449.5 C-331.84101064 440.46282312 -331.19180835 428.79390605 -327.36328125 420.17578125 C-325.50399938 417.2083887 -323.25762556 414.67760646 -321 412 C-322.70144165 411.98598145 -322.70144165 411.98598145 -324.43725586 411.97167969 C-328.68129475 411.93154048 -332.92462684 411.86571734 -337.16821289 411.79248047 C-338.99819803 411.76440876 -340.82830131 411.74312616 -342.65844727 411.72900391 C-345.30285529 411.7073816 -347.94586336 411.66063653 -350.58984375 411.609375 C-351.39646957 411.60814636 -352.2030954 411.60691772 -353.03416443 411.60565186 C-361.21447099 411.39888566 -368.39962251 408.40162847 -374.4296875 402.8203125 C-380.47893815 395.80799707 -382.27089697 387.94012236 -381.91796875 378.8984375 C-380.55705765 369.20875043 -373.26272718 360.13142142 -367.703125 352.34765625 C-366.87530518 351.16901001 -366.87530518 351.16901001 -366.03076172 349.96655273 C-364.95025904 348.43852248 -363.84844062 346.9252815 -362.72314453 345.42993164 C-362.22411621 344.72344482 -361.72508789 344.01695801 -361.2109375 343.2890625 C-360.76024902 342.67756348 -360.30956055 342.06606445 -359.84521484 341.43603516 C-357.41189544 334.42284596 -360.98388594 324.05716601 -362.27807617 316.92138672 C-362.50957052 315.63131682 -362.74106487 314.34124693 -362.9795742 313.01208401 C-363.61427583 309.47529425 -364.25262629 305.93917175 -364.89159513 302.4031508 C-365.57163759 298.63596389 -366.24815902 294.86814473 -366.92503357 291.10038757 C-368.07864016 284.68136111 -369.23422071 278.26269281 -370.39117432 271.8442688 C-372.18583327 261.88758268 -373.97604201 251.93009939 -375.76513672 241.97241211 C-375.91237623 241.15294346 -376.05961575 240.33347481 -376.21131706 239.48917377 C-376.80420711 236.18939886 -377.39708592 232.88962193 -377.98991632 229.5898363 C-378.87382805 224.66990912 -379.7580179 219.75003203 -380.64244127 214.8301968 C-385.18394401 189.56656433 -389.70745596 164.29981223 -394.18811417 139.0253067 C-394.62490317 136.56304587 -395.06249541 134.10092907 -395.50033569 131.63885498 C-396.16658634 127.89200834 -396.83116383 124.14486961 -397.49412727 120.39743996 C-397.8381997 118.45436958 -398.18377144 116.51156488 -398.52940369 114.56877136 C-398.72675613 113.44980972 -398.92410858 112.33084808 -399.12744141 111.17797852 C-399.38287216 109.73552513 -399.38287216 109.73552513 -399.64346313 108.26393127 C-400 106 -400 106 -400 104 C-400.65288498 104.01110306 -401.30576996 104.02220612 -401.97843933 104.03364563 C-408.77528195 104.14428563 -415.57186868 104.21968702 -422.36938477 104.2746582 C-424.9059488 104.29979839 -427.44244042 104.33391537 -429.97875977 104.37719727 C-433.62534451 104.43786661 -437.27097132 104.46621574 -440.91796875 104.48828125 C-442.05147263 104.51408768 -443.1849765 104.5398941 -444.35282898 104.56648254 C-453.12787779 104.56960678 -453.12787779 104.56960678 -456.21362305 101.59838867 C-457.92602909 99.10759497 -458.68490338 97.97120788 -458.625 95 C-458.63789063 94.360625 -458.65078125 93.72125 -458.6640625 93.0625 C-457.60531611 89.77415828 -455.60841611 88.20141546 -453 86 C-450.00268555 85.37181091 -450.00268555 85.37181091 -446.63671875 85.36889648 C-445.37190674 85.35636337 -444.10709473 85.34383026 -442.80395508 85.33091736 C-441.43179288 85.3431861 -440.05964056 85.35660619 -438.6875 85.37109375 C-437.27172666 85.37026448 -435.85595343 85.3678029 -434.44018555 85.36378479 C-431.47773138 85.36093089 -428.51603498 85.37558621 -425.55371094 85.40307617 C-421.76380661 85.43715988 -417.97525665 85.43113779 -414.18528748 85.4124136 C-411.26319162 85.40182516 -408.34140881 85.41079782 -405.41934204 85.42579842 C-404.02235851 85.43096727 -402.6253421 85.43051418 -401.22836304 85.42425346 C-399.27329259 85.4187801 -397.31820613 85.4420757 -395.36328125 85.46655273 C-393.69712769 85.4758506 -393.69712769 85.4758506 -391.99731445 85.4853363 C-388.3168615 86.11730053 -386.64283932 87.40830784 -384 90 C-383.02099609 92.47924805 -383.02099609 92.47924805 -382.5234375 95.26171875 C-382.32903076 96.29071289 -382.13462402 97.31970703 -381.93432617 98.37988281 C-381.74974854 99.47139648 -381.5651709 100.56291016 -381.375 101.6875 C-381.17044189 102.80350586 -380.96588379 103.91951172 -380.75512695 105.06933594 C-380.34513699 107.32047703 -379.94406921 109.57326261 -379.55224609 111.82763672 C-379.06250933 114.64091676 -378.54852022 117.4477979 -378.01953125 120.25390625 C-376.97154685 125.89494518 -376 131.23815731 -376 137 C-313.63 137 -251.26 137 -187 137 C-188.65 131.39 -190.3 125.78 -192 120 C-197.73693841 88.31024496 -192.45631932 56.20979917 -175.02734375 28.91015625 C-170.50905301 22.50550158 -165.3766987 16.69188449 -160 11 C-158.97132813 9.87464844 -158.97132813 9.87464844 -157.921875 8.7265625 C-117.88225825 -33.5374774 -44.60562164 -36.57106867 0 0 Z " fill="#D4E3EE" transform="translate(458,33)"/>
<path d="M0 0 C3.42669214 2.90749636 6.73343269 5.91431753 10 9 C10.75023437 9.68578125 11.50046875 10.3715625 12.2734375 11.078125 C34.28980782 31.93573899 45.51305464 62.56692524 46.3515625 92.48535156 C46.66021113 125.60077787 34.61976317 155.61761852 11.87792969 179.59082031 C-10.87195778 202.7462768 -39.4928552 213.7169271 -71.69946289 214.28100586 C-83.1466476 214.3743312 -93.95869109 214.27788858 -105 211 C-106.794375 210.50693359 -106.794375 210.50693359 -108.625 210.00390625 C-139.69609657 200.65021155 -164.91946185 178.75740666 -180.25 150.4375 C-195.0833024 121.99979611 -198.4373616 90.00191197 -189.04980469 59.15332031 C-183.00186705 40.46479249 -173.49084784 25.28169064 -160 11 C-159.31421875 10.24976563 -158.6284375 9.49953125 -157.921875 8.7265625 C-117.88225825 -33.5374774 -44.60562164 -36.57106867 0 0 Z " fill="#19CC61" transform="translate(458,33)"/>
<path d="M0 0 C1.26481201 -0.01253311 2.52962402 -0.02506622 3.83276367 -0.03797913 C5.20492587 -0.02571038 6.57707819 -0.0122903 7.94921875 0.00219727 C9.36499209 0.001368 10.78076532 -0.00109358 12.1965332 -0.00511169 C15.15898737 -0.0079656 18.12068377 0.00668972 21.08300781 0.03417969 C24.87291214 0.06826339 28.6614621 0.0622413 32.45143127 0.04351711 C35.37352713 0.03292867 38.29530994 0.04190134 41.21737671 0.05690193 C42.61436024 0.06207078 44.01137665 0.06161769 45.40835571 0.05535698 C47.36342616 0.04988362 49.31851262 0.07317922 51.2734375 0.09765625 C52.93959106 0.10695412 52.93959106 0.10695412 54.6394043 0.11643982 C58.3091842 0.7465714 59.98720987 2.06585913 62.63671875 4.63110352 C63.53637695 6.60253906 63.53637695 6.60253906 63.9375 8.76782227 C64.10531982 9.62786865 64.27313965 10.48791504 64.44604492 11.37402344 C64.61209229 12.34573486 64.77813965 13.31744629 64.94921875 14.31860352 C65.14813721 15.38763916 65.34705566 16.4566748 65.55200195 17.55810547 C67.8419286 30.15824975 69.8013517 42.8207658 71.82873535 55.46517944 C74.54571757 72.4013051 77.53515915 89.27303456 80.69921875 106.13110352 C83.67806445 122.01661011 86.60152082 137.90251132 89.26715088 153.84368896 C91.33110689 166.17665878 93.49369754 178.49055344 95.69839859 190.79902077 C96.18019755 193.48942041 96.66123768 196.17995471 97.14205933 198.87052917 C98.60172448 207.03649674 100.06357464 215.20202734 101.5380125 223.36534214 C102.15641059 226.79627612 102.7698174 230.22808975 103.38201332 233.66013527 C103.67149532 235.27664774 103.96312987 236.89277639 104.25704002 238.50848961 C104.66449735 240.74973501 105.06440561 242.99220875 105.46264648 245.23510742 C105.69024155 246.49932526 105.91783661 247.76354309 106.15232849 249.06607056 C107.01126138 255.38767593 107.24965658 259.60513321 103.6015625 264.95922852 C102.63379883 266.40749023 102.63379883 266.40749023 101.64648438 267.88500977 C100.96263672 268.8737207 100.27878906 269.86243164 99.57421875 270.88110352 C98.24941812 272.84425263 96.92519747 274.80779327 95.6015625 276.77172852 C94.94655762 277.73788086 94.29155273 278.7040332 93.61669922 279.69946289 C91.63001715 282.64102618 89.65034898 285.58511657 87.703125 288.55297852 C87.1366626 289.40988281 86.5702002 290.26678711 85.98657227 291.1496582 C84.57934282 293.73657809 83.91944353 295.70611633 83.63671875 298.63110352 C85.18030313 302.56724368 86.08511739 304.26336928 89.63671875 306.63110352 C91.84023777 306.93146209 91.84023777 306.93146209 94.31790733 306.88443661 C95.28569756 306.890052 96.25348778 306.8956674 97.25060499 306.90145296 C98.31624854 306.89747186 99.3818921 306.89349077 100.47982788 306.88938904 C102.17509705 306.89490259 102.17509705 306.89490259 103.90461409 306.90052754 C107.71168247 306.91054977 111.51860601 306.90634832 115.32568359 306.90234375 C118.04704778 306.9056051 120.76840264 306.9119187 123.48976135 306.91818237 C129.35996377 306.9302376 135.23013902 306.93533584 141.10035324 306.93606377 C149.59319064 306.9373882 158.08596197 306.95248929 166.57877608 306.97155894 C180.36435818 307.00241538 194.14994195 307.02657394 207.93554688 307.04443359 C208.76093911 307.04550627 209.58633135 307.04657895 210.43673547 307.04768414 C219.645017 307.05950367 228.8532992 307.06970877 238.06158447 307.078125 C241.40010581 307.08119885 244.73862714 307.08428765 248.07714844 307.08740234 C248.90093103 307.08816768 249.72471361 307.08893302 250.57345931 307.08972155 C264.30438681 307.10279854 278.03526656 307.1274321 291.7661587 307.16114575 C300.238343 307.18144901 308.7104252 307.19172331 317.18263401 307.18915654 C322.98738685 307.18812223 328.79205896 307.19774601 334.59678362 307.21579557 C337.9473136 307.2258504 341.29751479 307.22932507 344.64807701 307.22302818 C348.27878287 307.21691886 351.90898079 307.22906117 355.53964233 307.24583435 C356.60082445 307.23962254 357.66200656 307.23341072 358.7553457 307.22701067 C367.75149976 307.30303968 367.75149976 307.30303968 371.63671875 310.63110352 C372.78034987 312.91836575 372.90173807 314.45962779 373.01171875 317.00610352 C373.06070312 317.77696289 373.1096875 318.54782227 373.16015625 319.34204102 C372.35477889 322.86406441 370.66070889 323.73190362 367.63671875 325.63110352 C364.70337258 326.22300404 361.82169784 326.23592372 358.8359375 326.24047852 C357.99956253 326.25701477 357.16318756 326.27355103 356.3014679 326.29058838 C353.64230959 326.33899292 350.98372283 326.36042196 348.32421875 326.38110352 C346.5162474 326.4092696 344.7083026 326.43919793 342.90039062 326.47094727 C338.47921374 326.54474956 334.05835272 326.59437004 329.63671875 326.63110352 C330.04809082 327.16799805 330.45946289 327.70489258 330.88330078 328.25805664 C331.42325684 328.96897461 331.96321289 329.67989258 332.51953125 330.41235352 C333.05465332 331.11424805 333.58977539 331.81614258 334.14111328 332.53930664 C339.76889982 340.41049094 339.45962839 349.36643546 338.63671875 358.63110352 C336.61290939 367.34377433 331.63432968 374.7411738 324.38671875 379.94360352 C315.38670362 385.46702418 305.9780099 387.05937028 295.625 385.04516602 C286.49377556 382.49637353 279.71811104 377.63287471 274.71875 369.51782227 C269.77948793 359.90913904 267.92627667 351.18070899 270.76171875 340.50610352 C272.63671875 335.63110352 272.63671875 335.63110352 278.63671875 326.63110352 C244.64671875 326.63110352 210.65671875 326.63110352 175.63671875 326.63110352 C177.61671875 328.94110352 179.59671875 331.25110352 181.63671875 333.63110352 C186.13890001 343.52627195 187.0909645 352.86926115 183.67578125 363.14672852 C179.47506058 373.19055688 172.67409516 379.69174613 162.75 383.86938477 C153.79079741 387.09867221 144.33616722 386.35339589 135.63671875 382.63110352 C127.60947246 378.51862266 121.62642792 372.27777928 117.69921875 364.13110352 C114.79570811 355.09392664 115.4449104 343.42500956 119.2734375 334.80688477 C121.13271937 331.83949222 123.37909319 329.30870997 125.63671875 326.63110352 C123.9352771 326.61708496 123.9352771 326.61708496 122.19946289 326.6027832 C117.955424 326.562644 113.71209191 326.49682086 109.46850586 326.42358398 C107.63852072 326.39551227 105.80841744 326.37422968 103.97827148 326.36010742 C101.33386346 326.33848512 98.69085539 326.29174004 96.046875 326.24047852 C95.24024918 326.23924988 94.43362335 326.23802124 93.60255432 326.23675537 C85.42224776 326.02998917 78.23709624 323.03273198 72.20703125 317.45141602 C66.1577806 310.43910058 64.36582178 302.57122587 64.71875 293.52954102 C66.0796611 283.83985395 73.37399157 274.76252493 78.93359375 266.97875977 C79.76141357 265.80011353 79.76141357 265.80011353 80.60595703 264.59765625 C81.68645971 263.069626 82.78827813 261.55638501 83.91357422 260.06103516 C84.41260254 259.35454834 84.91163086 258.64806152 85.42578125 257.92016602 C85.87646973 257.30866699 86.3271582 256.69716797 86.79150391 256.06713867 C89.22482331 249.05394948 85.65283281 238.68826953 84.35864258 231.55249023 C84.12714823 230.26242034 83.89565388 228.97235044 83.65714455 227.64318752 C83.02244292 224.10639776 82.38409246 220.57027527 81.74512362 217.03425431 C81.06508116 213.2670674 80.38855973 209.49924824 79.71168518 205.73149109 C78.55807859 199.31246463 77.40249804 192.89379633 76.24554443 186.47537231 C74.45088548 176.51868619 72.66067674 166.5612029 70.87158203 156.60351562 C70.72434252 155.78404697 70.577103 154.96457832 70.42540169 154.12027729 C69.83251164 150.82050237 69.23963283 147.52072544 68.64680243 144.22093982 C67.7628907 139.30101263 66.87870085 134.38113554 65.99427748 129.46130031 C61.45277474 104.19766784 56.92926279 78.93091575 52.44860458 53.65641022 C52.01181558 51.19414939 51.57422334 48.73203259 51.13638306 46.2699585 C50.47013241 42.52311186 49.80555492 38.77597312 49.14259148 35.02854347 C48.79851905 33.0854731 48.45294731 31.1426684 48.10731506 29.19987488 C47.81128639 27.52143242 47.81128639 27.52143242 47.50927734 25.80908203 C47.25384659 24.36662865 47.25384659 24.36662865 46.99325562 22.89503479 C46.63671875 20.63110352 46.63671875 20.63110352 46.63671875 18.63110352 C45.65739128 18.6477581 45.65739128 18.6477581 44.65827942 18.66474915 C37.8614368 18.77538915 31.06485007 18.85079054 24.26733398 18.90576172 C21.73076995 18.93090191 19.19427833 18.96501888 16.65795898 19.00830078 C13.01137424 19.06897013 9.36574743 19.09731925 5.71875 19.11938477 C4.58524612 19.14519119 3.45174225 19.17099762 2.28388977 19.19758606 C-6.49115904 19.20071029 -6.49115904 19.20071029 -9.5769043 16.22949219 C-11.28931034 13.73869848 -12.04818463 12.6023114 -11.98828125 9.63110352 C-12.00117188 8.99172852 -12.0140625 8.35235352 -12.02734375 7.69360352 C-10.12317008 1.77946412 -5.76598513 0.00499249 0 0 Z " fill="#B8C8D5" transform="translate(11.36328125,118.368896484375)"/>
<path d="M0 0 C0.82562187 -0.00709439 1.65124374 -0.01418877 2.50188446 -0.02149814 C5.2667047 -0.0390917 8.03012164 -0.0209669 10.79492188 -0.00291443 C12.77767579 -0.00805273 14.76042513 -0.01533334 16.74316406 -0.02459717 C22.12750115 -0.0431306 27.51134382 -0.03016015 32.8956604 -0.01050687 C38.52810249 0.00586479 44.1605129 -0.0029312 49.79296875 -0.00802612 C59.25203357 -0.01254873 68.71090075 0.00333321 78.16992188 0.03126526 C89.10873008 0.06331781 100.0471818 0.06330191 110.98601532 0.04605049 C121.50512669 0.03019148 132.02410725 0.03691496 142.54321289 0.0539875 C147.02160113 0.06086343 151.4998847 0.05981996 155.97827148 0.05244255 C161.25117572 0.04478633 166.52367383 0.05688442 171.79650879 0.08429146 C173.73269444 0.0911833 175.66891797 0.09126473 177.60510254 0.08407593 C180.24630417 0.07539886 182.88624744 0.09130722 185.52734375 0.11352539 C186.67933887 0.10116424 186.67933887 0.10116424 187.85460663 0.08855337 C191.47464067 0.14484051 193.6081016 0.53275714 196.71984863 2.44160557 C199.51474113 5.43172025 199.69156609 7.5902654 199.76367188 11.62818909 C198.66159179 15.02626935 197.84269312 15.57550826 194.76367188 17.62818909 C192.05198163 17.82821959 189.44234893 17.91076693 186.72988892 17.90234375 C185.90189234 17.90758043 185.07389577 17.91281711 184.22080839 17.91821247 C181.43638248 17.93325722 178.6521396 17.9339186 175.86767578 17.93458557 C173.87536812 17.94220403 171.88306342 17.95063098 169.89076233 17.95980835 C164.47134997 17.98179062 159.05199404 17.99055721 153.63254213 17.99563479 C150.24861636 17.99927382 146.86470548 18.00551149 143.48078537 18.01263618 C131.68086851 18.03714318 119.8809957 18.05018538 108.08105469 18.0537262 C97.07297681 18.05736292 86.06517751 18.08726503 75.05718482 18.12913078 C65.61337786 18.16379156 56.1696634 18.1792739 46.72579324 18.17997223 C41.082212 18.18076645 35.43891438 18.18957183 29.79539871 18.21796989 C24.48804502 18.24407842 19.18121157 18.24639605 13.87382317 18.23031425 C11.92471498 18.22849404 9.97557738 18.23524188 8.02653313 18.25113297 C5.36754199 18.27149256 2.71038845 18.26110219 0.05142212 18.24291992 C-0.72182982 18.25611989 -1.49508176 18.26931986 -2.29176557 18.28291982 C-6.24727325 18.22104256 -8.05716828 17.76769991 -11.21525002 15.30851841 C-13.23632812 12.62818909 -13.23632812 12.62818909 -13.86132812 9.12818909 C-12.45753166 1.2669289 -7.17559737 -0.11058435 0 0 Z " fill="#B9C9D6" transform="translate(150.236328125,289.37181091308594)"/>
<path d="M0 0 C1.01686386 0.02965347 2.03372772 0.05930695 3.08140564 0.08985901 C4.67661293 0.08618065 4.67661293 0.08618065 6.30404663 0.08242798 C8.54407644 0.08874776 10.78415596 0.11962449 13.02354431 0.17359924 C16.44734124 0.24990031 19.86210042 0.23531267 23.28648376 0.20899963 C25.46817408 0.22638956 27.64983034 0.24899974 29.83140564 0.27735901 C30.85029373 0.27260056 31.86918182 0.2678421 32.91894531 0.26293945 C39.84695097 0.49254137 39.84695097 0.49254137 42.85667419 2.85858154 C44.38265456 4.60989751 45.66748991 6.34035786 46.88999939 8.31251526 C47.37210876 9.0743512 47.85421814 9.83618713 48.35093689 10.62110901 C52.19349469 19.57065601 52.64129274 30.61991825 49.26499939 39.81251526 C44.83591461 49.01019655 38.94464063 55.28746683 29.47593689 59.34767151 C20.07438008 62.55613931 11.10501501 62.21178177 1.81578064 58.75392151 C-7.91826355 53.95837771 -13.22689277 46.2137238 -17.11000061 36.31251526 C-20.02507326 26.99501312 -18.0824039 17.19610812 -13.7829895 8.68582153 C-9.96852083 2.45327794 -7.37921004 0.16766978 0 0 Z " fill="#252932" transform="translate(299.11000061035156,442.68748474121094)"/>
<path d="M0 0 C1.04031876 -0.00906876 2.08063751 -0.01813751 3.15248108 -0.02748108 C5.34701198 -0.03660409 7.54167967 -0.0279604 9.73608398 -0.00268555 C13.0852446 0.02723288 16.42671948 -0.02272859 19.77539062 -0.08007812 C21.9127682 -0.07904665 24.05014968 -0.07334225 26.1875 -0.0625 C27.18249008 -0.0818309 28.17748016 -0.1011618 29.20262146 -0.12107849 C33.3001824 -0.02533566 36.06601169 0.095322 39.34147644 2.698349 C45.37917076 9.42260937 48.21348216 17.62425274 48.59765625 26.65234375 C48.00632961 37.08639764 43.49386385 46.19883602 35.84765625 53.27734375 C27.61623616 59.86247982 18.45952874 61.70442635 8.16015625 60.96484375 C-2.28860083 59.13009176 -10.27595378 53.83106723 -16.3984375 45.22265625 C-21.74941747 36.84090442 -21.87675975 27.68742791 -20.83984375 17.96484375 C-20.00494871 14.2479099 -18.89856481 11.16852198 -16.83984375 7.96484375 C-16.48539688 7.39745987 -16.13095001 6.83007599 -15.76576233 6.24549866 C-11.36420675 0.12665412 -7.22951012 -0.07999887 0 0 Z " fill="#252933" transform="translate(148.83984375,443.03515625)"/>
<path d="M0 0 C2.5 2.125 2.5 2.125 4 5 C3.85949216 11.52648723 1.12272798 15.58462818 -2.421875 20.796875 C-2.98562332 21.64720306 -3.54937164 22.49753113 -4.13020325 23.37362671 C-5.99138748 26.17402032 -7.87042135 28.96192624 -9.75 31.75 C-11.05561376 33.70619634 -12.36020506 35.66307545 -13.66381836 37.62060547 C-17.07366112 42.73268101 -20.49983672 47.83356176 -23.93255615 52.93029785 C-25.96416343 55.94679053 -27.99339811 58.96486563 -30.02197266 61.98339844 C-35.03987129 69.44778501 -40.06133862 76.90972306 -45.10253906 84.35839844 C-45.66941437 85.19600708 -46.23628967 86.03361572 -46.82034302 86.89660645 C-47.92872484 88.53341197 -49.03781695 90.16973678 -50.14767456 91.80554199 C-52.92672583 95.90754525 -55.68068563 100.02375282 -58.39794922 104.16699219 C-58.94515121 104.99858856 -59.49235321 105.83018494 -60.05613708 106.6869812 C-61.09378518 108.2667885 -62.12666375 109.84974245 -63.15394592 111.43630981 C-63.61611008 112.13908051 -64.07827423 112.8418512 -64.55444336 113.56591797 C-64.95594101 114.18304657 -65.35743866 114.80017517 -65.77110291 115.43600464 C-67.84769556 118.07884699 -69.6117424 118.95329697 -72.90844727 119.34985352 C-76.66893146 118.92430082 -77.77227208 118.01316864 -80.46484375 115.40234375 C-81.3244873 114.57976074 -82.18413086 113.75717773 -83.06982422 112.90966797 C-84.04747217 111.94070872 -85.02413534 110.97075522 -86 110 C-87.13642985 108.88772194 -88.27333461 107.77592895 -89.41064453 106.66455078 C-92.51400895 103.61825949 -95.59259764 100.5481429 -98.66235352 97.46801758 C-100.58689886 95.53803217 -102.51683759 93.61355268 -104.44726562 91.68945312 C-105.67480059 90.46125866 -106.90202602 89.23275474 -108.12890625 88.00390625 C-108.70484024 87.42999649 -109.28077423 86.85608673 -109.87416077 86.26478577 C-114.90272465 81.20621434 -114.90272465 81.20621434 -115.3125 76.125 C-115.25797069 73.12588791 -115.07836085 72.12537736 -113.4375 69.5 C-109.89383548 67.31928337 -108.10900306 67.24668277 -104 68 C-96.95067319 72.94766416 -91.04068472 79.84193762 -85 85.9375 C-84.02497614 86.9175531 -83.0497172 87.8973724 -82.07421875 88.87695312 C-79.71383382 91.24902313 -77.35583095 93.6234086 -75 96 C-68.07568831 86.83659457 -61.82678672 77.25141307 -55.54196167 67.6449585 C-45.33703696 52.05821105 -35.08092805 36.50337801 -24.71084595 21.02597046 C-23.53254474 19.26453091 -22.35753059 17.50088788 -21.18588257 15.73501587 C-19.5584063 13.28353123 -17.91952377 10.84008808 -16.27734375 8.3984375 C-15.79944397 7.67346573 -15.32154419 6.94849396 -14.8291626 6.20155334 C-14.38143494 5.54126633 -13.93370728 4.88097931 -13.47241211 4.20068359 C-13.0891124 3.62724213 -12.70581268 3.05380066 -12.31089783 2.46298218 C-8.68912133 -1.57897621 -5.01846203 -1.3442309 0 0 Z " fill="#FAFEFC" transform="translate(440,69)"/>
<path d="M0 0 C1.14522629 -0.0071553 2.29045258 -0.01431061 3.47038269 -0.02168274 C7.25531924 -0.03858953 11.03907483 -0.01915483 14.82397461 0.00219727 C17.45283608 0.00136882 20.0816975 -0.00108964 22.71055603 -0.00511169 C28.2192851 -0.00962922 33.72767423 0.00621708 39.23632812 0.03417969 C45.60253575 0.06624643 51.96813091 0.0662089 58.33438212 0.04896492 C64.46351839 0.03309576 70.59239436 0.0399322 76.72152519 0.05690193 C79.32788019 0.06209163 81.93425284 0.06159245 84.54060555 0.05535698 C88.17980267 0.04991859 91.81795329 0.07023741 95.45703125 0.09765625 C96.53818207 0.09113037 97.61933289 0.08460449 98.73324585 0.07788086 C105.9965756 0.17112868 105.9965756 0.17112868 109.30174255 2.44960022 C111.2681768 5.59904518 111.66381836 7.92698076 111.66381836 11.63110352 C109.57756497 15.05851981 108.48938726 16.35591388 104.66381836 17.63110352 C103.11437754 17.72646015 101.56118194 17.76599132 100.00881958 17.77154541 C98.57465195 17.78011063 98.57465195 17.78011063 97.11151123 17.78884888 C96.06416809 17.78996674 95.01682495 17.79108459 93.93774414 17.79223633 C92.83343048 17.79720123 91.72911682 17.80216614 90.59133911 17.80728149 C86.93059674 17.82191152 83.26989769 17.82870619 79.60913086 17.83422852 C77.06948851 17.83997883 74.52984617 17.84573657 71.99020386 17.85150146 C67.34342306 17.86066944 62.6966553 17.86696909 58.04986775 17.86999822 C51.21387958 17.87447916 44.37809135 17.89203048 37.54216397 17.92099881 C31.61815589 17.94523009 25.69419756 17.95294299 19.77013779 17.95467377 C17.2511168 17.95770427 14.73209674 17.9657461 12.21310806 17.97885895 C8.69147779 17.99588395 5.17033619 17.9940477 1.64868164 17.98754883 C0.60538696 17.99676361 -0.43790771 18.00597839 -1.51281738 18.01547241 C-10.45680638 17.96368102 -10.45680638 17.96368102 -14.33618164 14.63110352 C-16.68167838 11.1128584 -16.91609567 9.77334657 -16.33618164 5.63110352 C-12.01316038 -0.68139462 -6.99234064 -0.07576112 0 0 Z " fill="#B9C9D6" transform="translate(144.336181640625,221.368896484375)"/>
</svg>
